<?xml version="1.0" standalone="no"?>
<!DOCTYPE svg PUBLIC "-//W3C//DTD SVG 20010904//EN"
 "http://www.w3.org/TR/2001/REC-SVG-20010904/DTD/svg10.dtd">
<svg version="1.0" xmlns="http://www.w3.org/2000/svg"
 width="325.000000pt" height="325.000000pt" viewBox="0 0 325.000000 325.000000"
 preserveAspectRatio="xMidYMid meet">
<metadata>
Created by potrace 1.14, written by Peter Selinger 2001-2017
</metadata>
<g transform="translate(0.000000,325.000000) scale(0.100000,-0.100000)"
fill="#000000" stroke="none">
<path d="M993 2108 c-31 -7 -50 -19 -69 -43 -40 -53 -42 -99 -6 -178 26 -57
103 -180 123 -197 3 -3 25 -33 48 -66 35 -53 76 -133 159 -314 26 -57 91 -149
113 -161 34 -18 64 13 122 125 52 100 85 136 125 139 12 1 22 6 22 13 0 16
-52 105 -148 252 -45 70 -96 155 -113 190 -21 42 -41 68 -60 78 -35 18 -152
55 -194 61 -112 16 -124 27 -85 76 25 31 17 36 -37 25z"/>
<path d="M1983 2102 c-101 -36 -161 -103 -148 -165 10 -45 72 -157 103 -184
33 -28 58 -32 103 -15 48 18 70 58 65 114 l-5 43 16 -35 c19 -44 6 -94 -36
-134 l-30 -29 26 -31 c43 -52 48 -51 87 6 20 29 59 78 87 108 97 106 124 184
96 275 -12 40 -14 41 -64 20 -49 -21 -68 -19 -118 10 -58 34 -117 40 -182 17z
m169 -114 c-15 -15 -26 -4 -18 18 5 13 9 15 18 6 9 -9 9 -15 0 -24z"/>
<path d="M1720 1958 c-21 -9 -85 -13 -256 -17 -67 -2 -51 -50 92 -271 47 -73
119 -201 161 -284 160 -317 175 -318 303 -31 44 98 90 207 90 214 0 4 -10 7
-22 8 -21 2 -50 29 -88 83 -8 11 -28 23 -45 26 -45 8 -69 37 -142 166 -36 65
-66 118 -67 117 0 0 -12 -5 -26 -11z"/>
</g>
</svg>
